<svg width="60" height="60" viewBox="0 0 60 60" fill="none" xmlns="http://www.w3.org/2000/svg">
<path d="M44.6703 54.68C43.8953 54.68 43.1203 54.48 42.4203 54.055L32.3953 48.105C31.3453 48.08 30.2953 48.005 29.2953 47.855C28.9612 47.8063 28.6461 47.6695 28.3825 47.4586C28.1188 47.2476 27.9162 46.9703 27.7953 46.655C27.5453 46.005 27.6703 45.305 28.1203 44.78C29.7703 42.855 30.6203 40.555 30.6203 38.105C30.6203 32.055 25.2953 27.13 18.7453 27.13C16.2953 27.13 13.9453 27.805 11.9703 29.105C11.7016 29.2769 11.3938 29.3782 11.0755 29.3994C10.7572 29.4207 10.4387 29.3613 10.1495 29.2266C9.86028 29.092 9.60974 28.8865 9.42109 28.6293C9.23244 28.372 9.11179 28.0713 9.07031 27.755C8.99057 27.0495 8.94885 26.3401 8.94531 25.63C8.94531 13.23 19.6953 3.15503 32.8953 3.15503C46.0953 3.15503 56.8453 13.23 56.8453 25.63C56.8453 32.43 53.6953 38.68 48.1453 42.955L48.9953 49.755C49.0724 50.3697 49.0182 50.9936 48.8364 51.5858C48.6546 52.1779 48.3492 52.7248 47.9405 53.1902C47.5317 53.6557 47.0289 54.0291 46.4652 54.2859C45.9015 54.5428 45.2897 54.6771 44.6703 54.68ZM32.8703 44.33C33.2203 44.305 33.5703 44.405 33.8703 44.605L44.3453 50.83C44.6203 51.005 44.8453 50.93 44.9953 50.83C45.1203 50.755 45.3203 50.555 45.2703 50.205L44.2953 42.305C44.2203 41.605 44.5203 40.93 45.0703 40.53C50.1703 36.955 53.0953 31.505 53.0953 25.58C53.0953 15.255 44.0453 6.85503 32.8953 6.85503C22.1703 6.85503 13.3703 14.655 12.7203 24.455C14.5953 23.73 16.6203 23.33 18.7203 23.33C27.3453 23.33 34.3453 29.93 34.3453 38.055C34.3703 40.255 33.8453 42.38 32.8703 44.33Z" fill="white"/>
<path d="M11.4445 56.875C10.7945 56.875 10.1695 56.7 9.59453 56.325C9.04706 55.9799 8.60855 55.4868 8.3298 54.9027C8.05105 54.3187 7.94348 53.6676 8.01953 53.025L8.51953 49.175C5.14453 46.425 3.14453 42.35 3.14453 38.075C3.14453 33.2 5.69453 28.65 9.96953 25.925C12.5915 24.2324 15.6487 23.3378 18.7695 23.35C27.3945 23.35 34.3945 29.95 34.3945 38.075C34.3945 41.375 33.1945 44.625 30.9945 47.2C28.1695 50.625 23.9445 52.625 19.2945 52.775L13.1945 56.4C12.6445 56.725 12.0445 56.875 11.4445 56.875ZM18.7445 27.1C16.2945 27.1 13.9445 27.775 11.9695 29.075C8.76953 31.125 6.86953 34.475 6.86953 38.075C6.86953 41.55 8.56953 44.725 11.5695 46.775C12.1445 47.175 12.4445 47.85 12.3695 48.55L11.8195 52.825L17.7945 49.275C18.0945 49.1 18.4195 49 18.7445 49C22.4195 49 25.8945 47.425 28.0945 44.75C29.7445 42.8 30.6195 40.5 30.6195 38.05C30.6195 32.025 25.2945 27.1 18.7445 27.1Z" fill="white"/>
</svg>
